<?xml version="1.0" encoding="UTF-8" standalone="no"?>
<!DOCTYPE svg PUBLIC "-//W3C//DTD SVG 1.1//EN"
 "http://www.w3.org/Graphics/SVG/1.1/DTD/svg11.dtd">
<!-- Generated by graphviz version 14.1.1 (20251213.1925)
 -->
<!-- Title: ApprovalProcess Pages: 1 -->
<svg width="284pt" height="408pt"
 viewBox="0.00 0.00 284.00 408.00" xmlns="http://www.w3.org/2000/svg" xmlns:xlink="http://www.w3.org/1999/xlink">
<g id="graph0" class="graph" transform="scale(1 1) rotate(0) translate(4 403.5)">
<title>ApprovalProcess</title>
<polygon fill="white" stroke="none" points="-4,4 -4,-403.5 279.88,-403.5 279.88,4 -4,4"/>
<!-- Start -->
<g id="node1" class="node">
<title>Start</title>
<ellipse fill="none" stroke="black" cx="140.25" cy="-381.5" rx="91.72" ry="18"/>
<text xml:space="preserve" text-anchor="middle" x="140.25" y="-376.82" font-family="Times,serif" font-size="14.00">Submit Request</text>
</g>
<!-- Review -->
<g id="node2" class="node">
<title>Review</title>
<polygon fill="none" stroke="black" points="208.25,-310.25 72.25,-310.25 72.25,-274.25 208.25,-274.25 208.25,-310.25"/>
<text xml:space="preserve" text-anchor="middle" x="140.25" y="-287.57" font-family="Times,serif" font-size="14.00">Manager Review</text>
</g>
<!-- Start&#45;&gt;Review -->
<g id="edge1" class="edge">
<title>Start&#45;&gt;Review</title>
<path fill="none" stroke="black" d="M140.25,-363.26C140.25,-351.43 140.25,-335.45 140.25,-321.75"/>
<polygon fill="black" stroke="black" points="143.75,-321.97 140.25,-311.97 136.75,-321.97 143.75,-321.97"/>
<text xml:space="preserve" text-anchor="middle" x="165" y="-332.2" font-family="Times,serif" font-size="14.00">submit</text>
</g>
<!-- Approved -->
<g id="node3" class="node">
<title>Approved</title>
<polygon fill="none" stroke="black" points="140.25,-221 49.23,-203 140.25,-185 231.27,-203 140.25,-221"/>
<text xml:space="preserve" text-anchor="middle" x="140.25" y="-198.32" font-family="Times,serif" font-size="14.00">Approved?</text>
</g>
<!-- Review&#45;&gt;Approved -->
<g id="edge2" class="edge">
<title>Review&#45;&gt;Approved</title>
<path fill="none" stroke="black" d="M140.25,-274.01C140.25,-262.26 140.25,-246.41 140.25,-232.77"/>
<polygon fill="black" stroke="black" points="143.75,-233.01 140.25,-223.01 136.75,-233.01 143.75,-233.01"/>
<text xml:space="preserve" text-anchor="middle" x="170.62" y="-242.95" font-family="Times,serif" font-size="14.00">evaluate</text>
</g>
<!-- Process -->
<g id="node4" class="node">
<title>Process</title>
<polygon fill="none" stroke="black" points="134.5,-128.5 0,-128.5 0,-92.5 134.5,-92.5 134.5,-128.5"/>
<text xml:space="preserve" text-anchor="middle" x="67.25" y="-105.83" font-family="Times,serif" font-size="14.00">Process Request</text>
</g>
<!-- Approved&#45;&gt;Process -->
<g id="edge3" class="edge">
<title>Approved&#45;&gt;Process</title>
<path fill="none" stroke="green" d="M128.2,-187.06C117.43,-173.71 101.42,-153.86 88.5,-137.85"/>
<polygon fill="green" stroke="green" points="91.28,-135.71 82.27,-130.12 85.83,-140.1 91.28,-135.71"/>
<text xml:space="preserve" text-anchor="middle" x="124.91" y="-153.7" font-family="Times,serif" font-size="14.00">YES</text>
</g>
<!-- Reject -->
<g id="node5" class="node">
<title>Reject</title>
<polygon fill="none" stroke="black" points="275.88,-131.75 152.62,-131.75 152.62,-89.25 275.88,-89.25 275.88,-131.75"/>
<text xml:space="preserve" text-anchor="middle" x="214.25" y="-114.45" font-family="Times,serif" font-size="14.00">Send Rejection</text>
<text xml:space="preserve" text-anchor="middle" x="214.25" y="-97.2" font-family="Times,serif" font-size="14.00">Email</text>
</g>
<!-- Approved&#45;&gt;Reject -->
<g id="edge4" class="edge">
<title>Approved&#45;&gt;Reject</title>
<path fill="none" stroke="red" d="M152.47,-187.06C162.7,-174.55 177.6,-156.33 190.2,-140.91"/>
<polygon fill="red" stroke="red" points="192.73,-143.35 196.35,-133.4 187.31,-138.92 192.73,-143.35"/>
<text xml:space="preserve" text-anchor="middle" x="193.31" y="-153.7" font-family="Times,serif" font-size="14.00">NO</text>
</g>
<!-- Complete -->
<g id="node6" class="node">
<title>Complete</title>
<ellipse fill="none" stroke="black" cx="140.25" cy="-18" rx="103.29" ry="18"/>
<text xml:space="preserve" text-anchor="middle" x="140.25" y="-13.32" font-family="Times,serif" font-size="14.00">Request Complete</text>
</g>
<!-- Process&#45;&gt;Complete -->
<g id="edge5" class="edge">
<title>Process&#45;&gt;Complete</title>
<path fill="none" stroke="black" d="M81.33,-92.05C92.1,-78.69 107.13,-60.06 119.31,-44.96"/>
<polygon fill="black" stroke="black" points="121.96,-47.25 125.52,-37.27 116.51,-42.85 121.96,-47.25"/>
<text xml:space="preserve" text-anchor="middle" x="127.54" y="-57.95" font-family="Times,serif" font-size="14.00">done</text>
</g>
<!-- Reject&#45;&gt;Complete -->
<g id="edge6" class="edge">
<title>Reject&#45;&gt;Complete</title>
<path fill="none" stroke="black" d="M197.46,-88.96C186.75,-75.87 172.8,-58.8 161.35,-44.8"/>
<polygon fill="black" stroke="black" points="164.24,-42.81 155.2,-37.29 158.82,-47.24 164.24,-42.81"/>
<text xml:space="preserve" text-anchor="middle" x="202.31" y="-57.95" font-family="Times,serif" font-size="14.00">notify</text>
</g>
</g>
</svg>
