<?xml version="1.0" encoding="UTF-8" standalone="no"?>
<!DOCTYPE svg PUBLIC "-//W3C//DTD SVG 1.1//EN"
 "http://www.w3.org/Graphics/SVG/1.1/DTD/svg11.dtd">
<!-- Generated by graphviz version 14.1.1 (20251213.1925)
 -->
<!-- Title: NetworkArchitecture Pages: 1 -->
<svg width="458pt" height="591pt"
 viewBox="0.00 0.00 458.00 591.00" xmlns="http://www.w3.org/2000/svg" xmlns:xlink="http://www.w3.org/1999/xlink">
<g id="graph0" class="graph" transform="scale(1 1) rotate(0) translate(4 587.19)">
<title>NetworkArchitecture</title>
<polygon fill="white" stroke="none" points="-4,4 -4,-587.19 454.02,-587.19 454.02,4 -4,4"/>
<!-- Users -->
<g id="node1" class="node">
<title>Users</title>
<ellipse fill="none" stroke="black" cx="221.54" cy="-565.19" rx="63.83" ry="18"/>
<text xml:space="preserve" text-anchor="middle" x="221.54" y="-560.51" font-family="Times,serif" font-size="14.00">End Users</text>
</g>
<!-- LoadBalancer -->
<g id="node2" class="node">
<title>LoadBalancer</title>
<ellipse fill="none" stroke="black" cx="221.54" cy="-463.89" rx="83.44" ry="30.05"/>
<text xml:space="preserve" text-anchor="middle" x="221.54" y="-467.84" font-family="Times,serif" font-size="14.00">Load Balancer</text>
<text xml:space="preserve" text-anchor="middle" x="221.54" y="-450.59" font-family="Times,serif" font-size="14.00">(HAProxy)</text>
</g>
<!-- Users&#45;&gt;LoadBalancer -->
<g id="edge1" class="edge">
<title>Users&#45;&gt;LoadBalancer</title>
<path fill="none" stroke="black" d="M221.54,-546.89C221.54,-535.49 221.54,-520.06 221.54,-505.66"/>
<polygon fill="black" stroke="black" points="225.04,-505.94 221.54,-495.94 218.04,-505.94 225.04,-505.94"/>
<text xml:space="preserve" text-anchor="middle" x="246.67" y="-515.89" font-family="Times,serif" font-size="14.00">HTTPS</text>
</g>
<!-- WebServer1 -->
<g id="node3" class="node">
<title>WebServer1</title>
<ellipse fill="none" stroke="black" cx="133.54" cy="-350.53" rx="79.73" ry="30.05"/>
<text xml:space="preserve" text-anchor="middle" x="133.54" y="-354.48" font-family="Times,serif" font-size="14.00">Web Server 1</text>
<text xml:space="preserve" text-anchor="middle" x="133.54" y="-337.23" font-family="Times,serif" font-size="14.00">(Nginx)</text>
</g>
<!-- LoadBalancer&#45;&gt;WebServer1 -->
<g id="edge2" class="edge">
<title>LoadBalancer&#45;&gt;WebServer1</title>
<path fill="none" stroke="black" d="M199.11,-434.5C188.15,-420.62 174.81,-403.75 163.03,-388.84"/>
<polygon fill="black" stroke="black" points="165.82,-386.73 156.88,-381.05 160.33,-391.07 165.82,-386.73"/>
<text xml:space="preserve" text-anchor="middle" x="203.06" y="-402.53" font-family="Times,serif" font-size="14.00">HTTP</text>
</g>
<!-- WebServer2 -->
<g id="node4" class="node">
<title>WebServer2</title>
<ellipse fill="none" stroke="black" cx="310.54" cy="-350.53" rx="79.73" ry="30.05"/>
<text xml:space="preserve" text-anchor="middle" x="310.54" y="-354.48" font-family="Times,serif" font-size="14.00">Web Server 2</text>
<text xml:space="preserve" text-anchor="middle" x="310.54" y="-337.23" font-family="Times,serif" font-size="14.00">(Nginx)</text>
</g>
<!-- LoadBalancer&#45;&gt;WebServer2 -->
<g id="edge3" class="edge">
<title>LoadBalancer&#45;&gt;WebServer2</title>
<path fill="none" stroke="black" d="M244.23,-434.5C255.51,-420.39 269.28,-403.16 281.33,-388.08"/>
<polygon fill="black" stroke="black" points="283.75,-390.66 287.26,-380.66 278.28,-386.29 283.75,-390.66"/>
<text xml:space="preserve" text-anchor="middle" x="291.62" y="-402.53" font-family="Times,serif" font-size="14.00">HTTP</text>
</g>
<!-- AppServer1 -->
<g id="node5" class="node">
<title>AppServer1</title>
<ellipse fill="none" stroke="black" cx="310.54" cy="-253.43" rx="77.6" ry="30.05"/>
<text xml:space="preserve" text-anchor="middle" x="310.54" y="-257.38" font-family="Times,serif" font-size="14.00">App Server 1</text>
<text xml:space="preserve" text-anchor="middle" x="310.54" y="-240.13" font-family="Times,serif" font-size="14.00">(Node.js)</text>
</g>
<!-- WebServer1&#45;&gt;AppServer1 -->
<g id="edge4" class="edge">
<title>WebServer1&#45;&gt;AppServer1</title>
<path fill="none" stroke="black" d="M178.67,-325.29C202.16,-312.66 231.08,-297.13 255.84,-283.82"/>
<polygon fill="black" stroke="black" points="257.33,-287 264.48,-279.18 254.01,-280.83 257.33,-287"/>
</g>
<!-- AppServer2 -->
<g id="node6" class="node">
<title>AppServer2</title>
<ellipse fill="none" stroke="black" cx="133.54" cy="-253.43" rx="77.6" ry="30.05"/>
<text xml:space="preserve" text-anchor="middle" x="133.54" y="-257.38" font-family="Times,serif" font-size="14.00">App Server 2</text>
<text xml:space="preserve" text-anchor="middle" x="133.54" y="-240.13" font-family="Times,serif" font-size="14.00">(Node.js)</text>
</g>
<!-- WebServer1&#45;&gt;AppServer2 -->
<g id="edge5" class="edge">
<title>WebServer1&#45;&gt;AppServer2</title>
<path fill="none" stroke="black" d="M133.54,-320.22C133.54,-312.27 133.54,-303.51 133.54,-295.05"/>
<polygon fill="black" stroke="black" points="137.04,-295.32 133.54,-285.32 130.04,-295.32 137.04,-295.32"/>
</g>
<!-- WebServer2&#45;&gt;AppServer1 -->
<g id="edge6" class="edge">
<title>WebServer2&#45;&gt;AppServer1</title>
<path fill="none" stroke="black" d="M310.54,-320.22C310.54,-312.27 310.54,-303.51 310.54,-295.05"/>
<polygon fill="black" stroke="black" points="314.04,-295.32 310.54,-285.32 307.04,-295.32 314.04,-295.32"/>
</g>
<!-- WebServer2&#45;&gt;AppServer2 -->
<g id="edge7" class="edge">
<title>WebServer2&#45;&gt;AppServer2</title>
<path fill="none" stroke="black" d="M265.42,-325.29C241.93,-312.66 213.01,-297.13 188.25,-283.82"/>
<polygon fill="black" stroke="black" points="190.08,-280.83 179.61,-279.18 186.76,-287 190.08,-280.83"/>
</g>
<!-- Cache -->
<g id="node7" class="node">
<title>Cache</title>
<path fill="none" stroke="black" d="M140.42,-155.63C140.42,-157.44 117.17,-158.91 88.54,-158.91 59.92,-158.91 36.67,-157.44 36.67,-155.63 36.67,-155.63 36.67,-126.18 36.67,-126.18 36.67,-124.37 59.92,-122.91 88.54,-122.91 117.17,-122.91 140.42,-124.37 140.42,-126.18 140.42,-126.18 140.42,-155.63 140.42,-155.63"/>
<path fill="none" stroke="black" d="M140.42,-155.63C140.42,-153.83 117.17,-152.36 88.54,-152.36 59.92,-152.36 36.67,-153.83 36.67,-155.63"/>
<text xml:space="preserve" text-anchor="middle" x="88.54" y="-136.23" font-family="Times,serif" font-size="14.00">Redis Cache</text>
</g>
<!-- AppServer1&#45;&gt;Cache -->
<g id="edge8" class="edge">
<title>AppServer1&#45;&gt;Cache</title>
<path fill="none" stroke="black" d="M253.76,-232.65C234.68,-225.12 213.6,-215.81 195.29,-205.38 184.27,-199.09 183.19,-195.04 172.54,-188.12 159.75,-179.82 145.35,-171.54 132.14,-164.33"/>
<polygon fill="black" stroke="black" points="134.11,-161.41 123.64,-159.75 130.79,-167.57 134.11,-161.41"/>
<text xml:space="preserve" text-anchor="middle" x="232.42" y="-192.07" font-family="Times,serif" font-size="14.00">read/write</text>
</g>
<!-- Database -->
<g id="node8" class="node">
<title>Database</title>
<path fill="none" stroke="black" d="M414.92,-164.81C414.92,-167.74 392.34,-170.12 364.54,-170.12 336.75,-170.12 314.17,-167.74 314.17,-164.81 314.17,-164.81 314.17,-117 314.17,-117 314.17,-114.07 336.75,-111.69 364.54,-111.69 392.34,-111.69 414.92,-114.07 414.92,-117 414.92,-117 414.92,-164.81 414.92,-164.81"/>
<path fill="none" stroke="black" d="M414.92,-164.81C414.92,-161.88 392.34,-159.5 364.54,-159.5 336.75,-159.5 314.17,-161.88 314.17,-164.81"/>
<text xml:space="preserve" text-anchor="middle" x="364.54" y="-144.86" font-family="Times,serif" font-size="14.00">PostgreSQL</text>
<text xml:space="preserve" text-anchor="middle" x="364.54" y="-127.61" font-family="Times,serif" font-size="14.00">Primary</text>
</g>
<!-- AppServer1&#45;&gt;Database -->
<g id="edge10" class="edge">
<title>AppServer1&#45;&gt;Database</title>
<path fill="none" stroke="black" d="M376.21,-236.94C392.05,-229.97 407.11,-219.89 416.54,-205.38 422.66,-195.97 420.09,-186.35 413.6,-177.53"/>
<polygon fill="black" stroke="black" points="416.27,-175.26 407,-170.14 411.06,-179.93 416.27,-175.26"/>
<text xml:space="preserve" text-anchor="middle" x="435.02" y="-192.07" font-family="Times,serif" font-size="14.00">SQL</text>
</g>
<!-- FileStorage -->
<g id="node10" class="node">
<title>FileStorage</title>
<polygon fill="none" stroke="black" points="285.42,-162.16 282.42,-166.16 261.42,-166.16 258.42,-162.16 181.67,-162.16 181.67,-119.66 285.42,-119.66 285.42,-162.16"/>
<text xml:space="preserve" text-anchor="middle" x="233.54" y="-144.86" font-family="Times,serif" font-size="14.00">File Storage</text>
<text xml:space="preserve" text-anchor="middle" x="233.54" y="-127.61" font-family="Times,serif" font-size="14.00">(S3)</text>
</g>
<!-- AppServer1&#45;&gt;FileStorage -->
<g id="edge13" class="edge">
<title>AppServer1&#45;&gt;FileStorage</title>
<path fill="none" stroke="black" d="M324.23,-223.63C327.75,-211.93 328.97,-198.7 322.54,-188.12 318.65,-181.72 307.31,-174.39 293.97,-167.49"/>
<polygon fill="black" stroke="black" points="295.86,-164.52 285.34,-163.23 292.76,-170.8 295.86,-164.52"/>
<text xml:space="preserve" text-anchor="middle" x="362.34" y="-192.07" font-family="Times,serif" font-size="14.00">store files</text>
</g>
<!-- AppServer2&#45;&gt;Cache -->
<g id="edge9" class="edge">
<title>AppServer2&#45;&gt;Cache</title>
<path fill="none" stroke="black" d="M60.94,-242.38C39.13,-235.58 17.51,-224.25 4.29,-205.38 -7.77,-188.15 7.94,-173.61 28.93,-162.81"/>
<polygon fill="black" stroke="black" points="30.29,-166.04 37.84,-158.61 27.3,-159.71 30.29,-166.04"/>
<text xml:space="preserve" text-anchor="middle" x="41.42" y="-192.07" font-family="Times,serif" font-size="14.00">read/write</text>
</g>
<!-- AppServer2&#45;&gt;Database -->
<g id="edge11" class="edge">
<title>AppServer2&#45;&gt;Database</title>
<path fill="none" stroke="black" d="M192.24,-233.34C225.7,-222.24 262.37,-209.63 269.54,-205.38 279.36,-199.56 279.41,-194.95 288.54,-188.12 294.84,-183.42 301.63,-178.76 308.48,-174.32"/>
<polygon fill="black" stroke="black" points="309.96,-177.52 316.53,-169.21 306.21,-171.61 309.96,-177.52"/>
<text xml:space="preserve" text-anchor="middle" x="303.54" y="-192.07" font-family="Times,serif" font-size="14.00">SQL</text>
</g>
<!-- AppServer2&#45;&gt;FileStorage -->
<g id="edge14" class="edge">
<title>AppServer2&#45;&gt;FileStorage</title>
<path fill="none" stroke="black" d="M107,-224.74C98.93,-212.97 94.07,-199.38 102.04,-188.12 103.19,-186.51 137.51,-174.47 170.8,-163.09"/>
<polygon fill="black" stroke="black" points="171.76,-166.46 180.1,-159.92 169.5,-159.83 171.76,-166.46"/>
<text xml:space="preserve" text-anchor="middle" x="137.29" y="-192.07" font-family="Times,serif" font-size="14.00">store files</text>
</g>
<!-- DatabaseReplica -->
<g id="node9" class="node">
<title>DatabaseReplica</title>
<path fill="none" stroke="black" d="M414.92,-53.12C414.92,-56.06 392.34,-58.44 364.54,-58.44 336.75,-58.44 314.17,-56.06 314.17,-53.12 314.17,-53.12 314.17,-5.31 314.17,-5.31 314.17,-2.38 336.75,0 364.54,0 392.34,0 414.92,-2.38 414.92,-5.31 414.92,-5.31 414.92,-53.12 414.92,-53.12"/>
<path fill="none" stroke="black" d="M414.92,-53.12C414.92,-50.19 392.34,-47.81 364.54,-47.81 336.75,-47.81 314.17,-50.19 314.17,-53.12"/>
<text xml:space="preserve" text-anchor="middle" x="364.54" y="-33.17" font-family="Times,serif" font-size="14.00">PostgreSQL</text>
<text xml:space="preserve" text-anchor="middle" x="364.54" y="-15.92" font-family="Times,serif" font-size="14.00">Replica</text>
</g>
<!-- Database&#45;&gt;DatabaseReplica -->
<g id="edge12" class="edge">
<title>Database&#45;&gt;DatabaseReplica</title>
<path fill="none" stroke="black" stroke-dasharray="5,2" d="M364.54,-111.37C364.54,-98.68 364.54,-83.52 364.54,-69.76"/>
<polygon fill="black" stroke="black" points="368.04,-70.12 364.54,-60.12 361.04,-70.12 368.04,-70.12"/>
<text xml:space="preserve" text-anchor="middle" x="402.79" y="-80.39" font-family="Times,serif" font-size="14.00">replication</text>
</g>
</g>
</svg>
