<?xml version="1.0" encoding="UTF-8" standalone="no"?>
<!DOCTYPE svg PUBLIC "-//W3C//DTD SVG 1.1//EN"
 "http://www.w3.org/Graphics/SVG/1.1/DTD/svg11.dtd">
<!-- Generated by graphviz version 14.1.1 (20251213.1925)
 -->
<!-- Title: OrgChart Pages: 1 -->
<svg width="959pt" height="252pt"
 viewBox="0.00 0.00 959.00 252.00" xmlns="http://www.w3.org/2000/svg" xmlns:xlink="http://www.w3.org/1999/xlink">
<g id="graph0" class="graph" transform="scale(1 1) rotate(0) translate(4 247.83)">
<title>OrgChart</title>
<polygon fill="white" stroke="none" points="-4,4 -4,-247.83 955.19,-247.83 955.19,4 -4,4"/>
<!-- CEO -->
<g id="node1" class="node">
<title>CEO</title>
<ellipse fill="none" stroke="black" cx="481.42" cy="-218.02" rx="57.45" ry="25.81"/>
<text xml:space="preserve" text-anchor="middle" x="481.42" y="-220.87" font-family="Times,serif" font-size="12.00">Jane Smith</text>
<text xml:space="preserve" text-anchor="middle" x="481.42" y="-206.62" font-family="Times,serif" font-size="12.00">CEO</text>
</g>
<!-- CTO -->
<g id="node2" class="node">
<title>CTO</title>
<ellipse fill="none" stroke="black" cx="237.42" cy="-126.16" rx="56.39" ry="30.05"/>
<text xml:space="preserve" text-anchor="middle" x="237.42" y="-130.11" font-family="Times,serif" font-size="14.00">John Doe</text>
<text xml:space="preserve" text-anchor="middle" x="237.42" y="-112.86" font-family="Times,serif" font-size="14.00">CTO</text>
</g>
<!-- CEO&#45;&gt;CTO -->
<g id="edge1" class="edge">
<title>CEO&#45;&gt;CTO</title>
<path fill="none" stroke="black" d="M437.52,-200.85C397.3,-186.03 337.54,-164.03 293.8,-147.92"/>
<polygon fill="black" stroke="black" points="295.06,-144.65 284.46,-144.48 292.64,-151.22 295.06,-144.65"/>
</g>
<!-- CFO -->
<g id="node3" class="node">
<title>CFO</title>
<ellipse fill="none" stroke="black" cx="481.42" cy="-126.16" rx="78.67" ry="30.05"/>
<text xml:space="preserve" text-anchor="middle" x="481.42" y="-130.11" font-family="Times,serif" font-size="14.00">Alice Johnson</text>
<text xml:space="preserve" text-anchor="middle" x="481.42" y="-112.86" font-family="Times,serif" font-size="14.00">CFO</text>
</g>
<!-- CEO&#45;&gt;CFO -->
<g id="edge2" class="edge">
<title>CEO&#45;&gt;CFO</title>
<path fill="none" stroke="black" d="M481.42,-191.99C481.42,-184.5 481.42,-176.1 481.42,-167.88"/>
<polygon fill="black" stroke="black" points="484.92,-168.02 481.42,-158.02 477.92,-168.02 484.92,-168.02"/>
</g>
<!-- COO -->
<g id="node4" class="node">
<title>COO</title>
<ellipse fill="none" stroke="black" cx="727.42" cy="-126.16" rx="68.06" ry="30.05"/>
<text xml:space="preserve" text-anchor="middle" x="727.42" y="-130.11" font-family="Times,serif" font-size="14.00">Bob Wilson</text>
<text xml:space="preserve" text-anchor="middle" x="727.42" y="-112.86" font-family="Times,serif" font-size="14.00">COO</text>
</g>
<!-- CEO&#45;&gt;COO -->
<g id="edge3" class="edge">
<title>CEO&#45;&gt;COO</title>
<path fill="none" stroke="black" d="M525.4,-200.95C564.26,-186.76 621.37,-165.9 664.96,-149.97"/>
<polygon fill="black" stroke="black" points="666.12,-153.28 674.31,-146.56 663.71,-146.7 666.12,-153.28"/>
</g>
<!-- DevLead -->
<g id="node5" class="node">
<title>DevLead</title>
<ellipse fill="none" stroke="black" cx="74.42" cy="-30.05" rx="74.42" ry="30.05"/>
<text xml:space="preserve" text-anchor="middle" x="74.42" y="-34" font-family="Times,serif" font-size="14.00">Carol Brown</text>
<text xml:space="preserve" text-anchor="middle" x="74.42" y="-16.75" font-family="Times,serif" font-size="14.00">Dev Lead</text>
</g>
<!-- CTO&#45;&gt;DevLead -->
<g id="edge4" class="edge">
<title>CTO&#45;&gt;DevLead</title>
<path fill="none" stroke="black" d="M199.62,-103.33C177.81,-90.74 150.08,-74.73 126.26,-60.98"/>
<polygon fill="black" stroke="black" points="128.04,-57.97 117.63,-56 124.54,-64.03 128.04,-57.97"/>
</g>
<!-- QALead -->
<g id="node6" class="node">
<title>QALead</title>
<ellipse fill="none" stroke="black" cx="237.42" cy="-30.05" rx="70.18" ry="30.05"/>
<text xml:space="preserve" text-anchor="middle" x="237.42" y="-34" font-family="Times,serif" font-size="14.00">Dave Miller</text>
<text xml:space="preserve" text-anchor="middle" x="237.42" y="-16.75" font-family="Times,serif" font-size="14.00">QA Lead</text>
</g>
<!-- CTO&#45;&gt;QALead -->
<g id="edge5" class="edge">
<title>CTO&#45;&gt;QALead</title>
<path fill="none" stroke="black" d="M237.42,-95.64C237.42,-88.11 237.42,-79.87 237.42,-71.88"/>
<polygon fill="black" stroke="black" points="240.92,-71.98 237.42,-61.98 233.92,-71.98 240.92,-71.98"/>
</g>
<!-- Accounting -->
<g id="node7" class="node">
<title>Accounting</title>
<ellipse fill="none" stroke="black" cx="400.42" cy="-30.05" rx="74.95" ry="30.05"/>
<text xml:space="preserve" text-anchor="middle" x="400.42" y="-34" font-family="Times,serif" font-size="14.00">Emma Davis</text>
<text xml:space="preserve" text-anchor="middle" x="400.42" y="-16.75" font-family="Times,serif" font-size="14.00">Accounting</text>
</g>
<!-- CFO&#45;&gt;Accounting -->
<g id="edge6" class="edge">
<title>CFO&#45;&gt;Accounting</title>
<path fill="none" stroke="black" d="M457.34,-97.18C449.26,-87.79 440.13,-77.18 431.59,-67.26"/>
<polygon fill="black" stroke="black" points="434.44,-65.2 425.26,-59.91 429.13,-69.77 434.44,-65.2"/>
</g>
<!-- Payroll -->
<g id="node8" class="node">
<title>Payroll</title>
<ellipse fill="none" stroke="black" cx="570.42" cy="-30.05" rx="77.07" ry="30.05"/>
<text xml:space="preserve" text-anchor="middle" x="570.42" y="-34" font-family="Times,serif" font-size="14.00">Frank Garcia</text>
<text xml:space="preserve" text-anchor="middle" x="570.42" y="-16.75" font-family="Times,serif" font-size="14.00">Payroll</text>
</g>
<!-- CFO&#45;&gt;Payroll -->
<g id="edge7" class="edge">
<title>CFO&#45;&gt;Payroll</title>
<path fill="none" stroke="black" d="M507.64,-97.43C516.7,-87.86 526.97,-76.99 536.55,-66.87"/>
<polygon fill="black" stroke="black" points="539.02,-69.35 543.35,-59.68 533.93,-64.54 539.02,-69.35"/>
</g>
<!-- Support -->
<g id="node9" class="node">
<title>Support</title>
<ellipse fill="none" stroke="black" cx="727.42" cy="-30.05" rx="62.23" ry="30.05"/>
<text xml:space="preserve" text-anchor="middle" x="727.42" y="-34" font-family="Times,serif" font-size="14.00">Grace Lee</text>
<text xml:space="preserve" text-anchor="middle" x="727.42" y="-16.75" font-family="Times,serif" font-size="14.00">Support</text>
</g>
<!-- COO&#45;&gt;Support -->
<g id="edge8" class="edge">
<title>COO&#45;&gt;Support</title>
<path fill="none" stroke="black" d="M727.42,-95.64C727.42,-88.11 727.42,-79.87 727.42,-71.88"/>
<polygon fill="black" stroke="black" points="730.92,-71.98 727.42,-61.98 723.92,-71.98 730.92,-71.98"/>
</g>
<!-- Logistics -->
<g id="node10" class="node">
<title>Logistics</title>
<ellipse fill="none" stroke="black" cx="879.42" cy="-30.05" rx="71.77" ry="30.05"/>
<text xml:space="preserve" text-anchor="middle" x="879.42" y="-34" font-family="Times,serif" font-size="14.00">Henry Chen</text>
<text xml:space="preserve" text-anchor="middle" x="879.42" y="-16.75" font-family="Times,serif" font-size="14.00">Logistics</text>
</g>
<!-- COO&#45;&gt;Logistics -->
<g id="edge9" class="edge">
<title>COO&#45;&gt;Logistics</title>
<path fill="none" stroke="black" d="M766.17,-101.17C785.69,-89.08 809.55,-74.31 830.34,-61.44"/>
<polygon fill="black" stroke="black" points="832,-64.53 838.66,-56.29 828.32,-58.57 832,-64.53"/>
</g>
</g>
</svg>
