<?xml version="1.0" encoding="UTF-8" standalone="no"?>
<!DOCTYPE svg PUBLIC "-//W3C//DTD SVG 1.1//EN"
 "http://www.w3.org/Graphics/SVG/1.1/DTD/svg11.dtd">
<!-- Generated by graphviz version 14.1.1 (20251213.1925)
 -->
<!-- Title: DataPipeline Pages: 1 -->
<svg width="218pt" height="621pt"
 viewBox="0.00 0.00 218.00 621.00" xmlns="http://www.w3.org/2000/svg" xmlns:xlink="http://www.w3.org/1999/xlink">
<g id="graph0" class="graph" transform="scale(1 1) rotate(0) translate(4 616.75)">
<title>DataPipeline</title>
<polygon fill="white" stroke="none" points="-4,4 -4,-616.75 214.08,-616.75 214.08,4 -4,4"/>
<g id="clust1" class="cluster">
<title>cluster_Discovery</title>
<polygon fill="lightgrey" stroke="lightgrey" points="8,-375.75 8,-604.75 182,-604.75 182,-375.75 8,-375.75"/>
<text xml:space="preserve" text-anchor="middle" x="95" y="-591.25" font-family="Helvetica,sans-Serif" font-size="10.00">Discovery Stage</text>
</g>
<g id="clust2" class="cluster">
<title>cluster_Processing</title>
<polygon fill="lightblue" stroke="lightblue" points="26,-138 26,-356.75 182,-356.75 182,-138 26,-138"/>
<text xml:space="preserve" text-anchor="middle" x="104" y="-343.25" font-family="Helvetica,sans-Serif" font-size="10.00">Processing Stage</text>
</g>
<!-- ListFiles -->
<g id="node1" class="node">
<title>ListFiles</title>
<path fill="white" stroke="black" d="M140.88,-576C140.88,-576 91.12,-576 91.12,-576 85.12,-576 79.12,-570 79.12,-564 79.12,-564 79.12,-552 79.12,-552 79.12,-546 85.12,-540 91.12,-540 91.12,-540 140.88,-540 140.88,-540 146.88,-540 152.88,-546 152.88,-552 152.88,-552 152.88,-564 152.88,-564 152.88,-570 146.88,-576 140.88,-576"/>
<text xml:space="preserve" text-anchor="middle" x="116" y="-554.88" font-family="Helvetica,sans-Serif" font-size="10.00">List S3 Files</text>
</g>
<!-- FilterNew -->
<g id="node2" class="node">
<title>FilterNew</title>
<path fill="white" stroke="black" d="M83.3,-500.33C83.3,-500.33 27.96,-487.67 27.96,-487.67 22.11,-486.34 22.11,-483.66 27.96,-482.33 27.96,-482.33 83.3,-469.67 83.3,-469.67 89.15,-468.34 100.85,-468.34 106.7,-469.67 106.7,-469.67 162.04,-482.33 162.04,-482.33 167.89,-483.66 167.89,-486.34 162.04,-487.67 162.04,-487.67 106.7,-500.33 106.7,-500.33 100.85,-501.66 89.15,-501.66 83.3,-500.33"/>
<text xml:space="preserve" text-anchor="middle" x="95" y="-481.88" font-family="Helvetica,sans-Serif" font-size="10.00">Filter New Files</text>
</g>
<!-- ListFiles&#45;&gt;FilterNew -->
<g id="edge2" class="edge">
<title>ListFiles&#45;&gt;FilterNew</title>
<path fill="none" stroke="black" d="M110.92,-539.81C108.53,-531.73 105.62,-521.91 102.95,-512.88"/>
<polygon fill="black" stroke="black" points="106.37,-512.1 100.18,-503.51 99.66,-514.09 106.37,-512.1"/>
</g>
<!-- QueueFiles -->
<g id="node3" class="node">
<title>QueueFiles</title>
<path fill="white" stroke="black" d="M129.25,-419.75C129.25,-419.75 66.75,-419.75 66.75,-419.75 60.75,-419.75 54.75,-413.75 54.75,-407.75 54.75,-407.75 54.75,-395.75 54.75,-395.75 54.75,-389.75 60.75,-383.75 66.75,-383.75 66.75,-383.75 129.25,-383.75 129.25,-383.75 135.25,-383.75 141.25,-389.75 141.25,-395.75 141.25,-395.75 141.25,-407.75 141.25,-407.75 141.25,-413.75 135.25,-419.75 129.25,-419.75"/>
<text xml:space="preserve" text-anchor="middle" x="98" y="-398.62" font-family="Helvetica,sans-Serif" font-size="10.00">Push to Queue</text>
</g>
<!-- FilterNew&#45;&gt;QueueFiles -->
<g id="edge3" class="edge">
<title>FilterNew&#45;&gt;QueueFiles</title>
<path fill="none" stroke="black" d="M95.64,-466.77C96.02,-456.5 96.51,-443.2 96.94,-431.39"/>
<polygon fill="black" stroke="black" points="100.43,-431.87 97.3,-421.75 93.43,-431.61 100.43,-431.87"/>
<text xml:space="preserve" text-anchor="middle" x="116.55" y="-440.45" font-family="Helvetica,sans-Serif" font-size="9.00">new files</text>
</g>
<!-- Download -->
<g id="node4" class="node">
<title>Download</title>
<path fill="white" stroke="black" d="M161.5,-328C161.5,-328 46.5,-328 46.5,-328 40.5,-328 34.5,-322 34.5,-316 34.5,-316 34.5,-304 34.5,-304 34.5,-298 40.5,-292 46.5,-292 46.5,-292 161.5,-292 161.5,-292 167.5,-292 173.5,-298 173.5,-304 173.5,-304 173.5,-316 173.5,-316 173.5,-322 167.5,-328 161.5,-328"/>
<text xml:space="preserve" text-anchor="middle" x="104" y="-306.88" font-family="Helvetica,sans-Serif" font-size="10.00">Download &amp; Decompress</text>
</g>
<!-- QueueFiles&#45;&gt;Download -->
<g id="edge4" class="edge">
<title>QueueFiles&#45;&gt;Download</title>
<path fill="none" stroke="black" d="M99.16,-383.45C99.99,-371.03 101.12,-354.02 102.09,-339.6"/>
<polygon fill="black" stroke="black" points="105.57,-339.97 102.75,-329.76 98.59,-339.51 105.57,-339.97"/>
</g>
<!-- Transform -->
<g id="node5" class="node">
<title>Transform</title>
<path fill="white" stroke="black" d="M143.5,-255C143.5,-255 76.5,-255 76.5,-255 70.5,-255 64.5,-249 64.5,-243 64.5,-243 64.5,-231 64.5,-231 64.5,-225 70.5,-219 76.5,-219 76.5,-219 143.5,-219 143.5,-219 149.5,-219 155.5,-225 155.5,-231 155.5,-231 155.5,-243 155.5,-243 155.5,-249 149.5,-255 143.5,-255"/>
<text xml:space="preserve" text-anchor="middle" x="110" y="-233.88" font-family="Helvetica,sans-Serif" font-size="10.00">Transform Data</text>
</g>
<!-- Download&#45;&gt;Transform -->
<g id="edge5" class="edge">
<title>Download&#45;&gt;Transform</title>
<path fill="none" stroke="black" d="M105.45,-291.81C106.1,-284.14 106.88,-274.89 107.61,-266.24"/>
<polygon fill="black" stroke="black" points="111.08,-266.8 108.43,-256.54 104.1,-266.21 111.08,-266.8"/>
</g>
<!-- Load -->
<g id="node6" class="node">
<title>Load</title>
<path fill="yellow" stroke="black" d="M164.75,-178.73C164.75,-180.53 142,-182 114,-182 86,-182 63.25,-180.53 63.25,-178.73 63.25,-178.73 63.25,-149.27 63.25,-149.27 63.25,-147.47 86,-146 114,-146 142,-146 164.75,-147.47 164.75,-149.27 164.75,-149.27 164.75,-178.73 164.75,-178.73"/>
<path fill="none" stroke="black" d="M164.75,-178.73C164.75,-176.92 142,-175.45 114,-175.45 86,-175.45 63.25,-176.92 63.25,-178.73"/>
<text xml:space="preserve" text-anchor="middle" x="114" y="-160.88" font-family="Helvetica,sans-Serif" font-size="10.00">Load to Database</text>
</g>
<!-- Transform&#45;&gt;Load -->
<g id="edge6" class="edge">
<title>Transform&#45;&gt;Load</title>
<path fill="none" stroke="black" d="M110.97,-218.81C111.4,-211.14 111.92,-201.89 112.41,-193.24"/>
<polygon fill="black" stroke="black" points="115.89,-193.72 112.96,-183.54 108.9,-193.33 115.89,-193.72"/>
</g>
<!-- Sleep -->
<g id="node8" class="node">
<title>Sleep</title>
<ellipse fill="white" stroke="black" cx="139" cy="-91" rx="27" ry="18"/>
<text xml:space="preserve" text-anchor="middle" x="139" y="-87.88" font-family="Helvetica,sans-Serif" font-size="10.00">Sleep</text>
</g>
<!-- Load&#45;&gt;Sleep -->
<g id="edge7" class="edge">
<title>Load&#45;&gt;Sleep</title>
<path fill="none" stroke="black" d="M120.05,-145.81C122.82,-137.96 126.16,-128.47 129.26,-119.66"/>
<polygon fill="black" stroke="black" points="132.48,-121.05 132.5,-110.46 125.88,-118.73 132.48,-121.05"/>
</g>
<!-- Start -->
<g id="node7" class="node">
<title>Start</title>
<ellipse fill="lightgreen" stroke="black" cx="170" cy="-18" rx="40.08" ry="18"/>
<text xml:space="preserve" text-anchor="middle" x="170" y="-14.88" font-family="Helvetica,sans-Serif" font-size="10.00">Start Loop</text>
</g>
<!-- Start&#45;&gt;ListFiles -->
<g id="edge1" class="edge">
<title>Start&#45;&gt;ListFiles</title>
<path fill="none" stroke="black" d="M182.28,-35.56C191.3,-49.39 202,-69.99 202,-90 202,-486 202,-486 202,-486 202,-509.11 183.31,-526.1 163.36,-537.66"/>
<polygon fill="black" stroke="black" points="161.74,-534.55 154.56,-542.34 165.03,-540.73 161.74,-534.55"/>
</g>
<!-- Sleep&#45;&gt;Start -->
<g id="edge8" class="edge">
<title>Sleep&#45;&gt;Start</title>
<path fill="none" stroke="black" stroke-dasharray="5,2" d="M146.35,-73.17C149.86,-65.13 154.15,-55.29 158.12,-46.22"/>
<polygon fill="black" stroke="black" points="161.31,-47.66 162.1,-37.09 154.89,-44.86 161.31,-47.66"/>
</g>
</g>
</svg>
