<?xml version="1.0" encoding="UTF-8" standalone="no"?>
<!DOCTYPE svg PUBLIC "-//W3C//DTD SVG 1.1//EN"
 "http://www.w3.org/Graphics/SVG/1.1/DTD/svg11.dtd">
<!-- Generated by graphviz version 14.1.1 (20251213.1925)
 -->
<!-- Title: DataPipeline Pages: 1 -->
<svg width="417pt" height="644pt"
 viewBox="0.00 0.00 417.00 644.00" xmlns="http://www.w3.org/2000/svg" xmlns:xlink="http://www.w3.org/1999/xlink">
<g id="graph0" class="graph" transform="scale(1 1) rotate(0) translate(4 639.6)">
<title>DataPipeline</title>
<polygon fill="white" stroke="none" points="-4,4 -4,-639.6 413.4,-639.6 413.4,4 -4,4"/>
<!-- FileSystem -->
<g id="node1" class="node">
<title>FileSystem</title>
<ellipse fill="none" stroke="black" cx="71.77" cy="-605.55" rx="71.77" ry="30.05"/>
<text xml:space="preserve" text-anchor="middle" x="71.77" y="-609.5" font-family="Times,serif" font-size="14.00">File System</text>
<text xml:space="preserve" text-anchor="middle" x="71.77" y="-592.25" font-family="Times,serif" font-size="14.00">(CSV, JSON)</text>
</g>
<!-- Validate -->
<g id="node4" class="node">
<title>Validate</title>
<ellipse fill="none" stroke="black" cx="216.77" cy="-504.25" rx="78.57" ry="18"/>
<text xml:space="preserve" text-anchor="middle" x="216.77" y="-499.57" font-family="Times,serif" font-size="14.00">Validate Data</text>
</g>
<!-- FileSystem&#45;&gt;Validate -->
<g id="edge1" class="edge">
<title>FileSystem&#45;&gt;Validate</title>
<path fill="none" stroke="black" d="M108.36,-579.49C131.45,-563.68 161.05,-543.41 183.49,-528.05"/>
<polygon fill="black" stroke="black" points="185.41,-530.97 191.68,-522.43 181.45,-525.2 185.41,-530.97"/>
<text xml:space="preserve" text-anchor="middle" x="177.65" y="-544.2" font-family="Times,serif" font-size="14.00">read</text>
</g>
<!-- Database -->
<g id="node2" class="node">
<title>Database</title>
<path fill="none" stroke="black" d="M272.4,-629.46C272.4,-632.39 247.46,-634.77 216.77,-634.77 186.08,-634.77 161.15,-632.39 161.15,-629.46 161.15,-629.46 161.15,-581.65 161.15,-581.65 161.15,-578.71 186.08,-576.33 216.77,-576.33 247.46,-576.33 272.4,-578.71 272.4,-581.65 272.4,-581.65 272.4,-629.46 272.4,-629.46"/>
<path fill="none" stroke="black" d="M272.4,-629.46C272.4,-626.53 247.46,-624.15 216.77,-624.15 186.08,-624.15 161.15,-626.53 161.15,-629.46"/>
<text xml:space="preserve" text-anchor="middle" x="216.77" y="-609.5" font-family="Times,serif" font-size="14.00">Database</text>
<text xml:space="preserve" text-anchor="middle" x="216.77" y="-592.25" font-family="Times,serif" font-size="14.00">(PostgreSQL)</text>
</g>
<!-- Database&#45;&gt;Validate -->
<g id="edge2" class="edge">
<title>Database&#45;&gt;Validate</title>
<path fill="none" stroke="black" d="M216.77,-576.1C216.77,-562.84 216.77,-547.11 216.77,-533.84"/>
<polygon fill="black" stroke="black" points="220.27,-534.01 216.77,-524.01 213.27,-534.01 220.27,-534.01"/>
<text xml:space="preserve" text-anchor="middle" x="237.4" y="-544.2" font-family="Times,serif" font-size="14.00">query</text>
</g>
<!-- API -->
<g id="node3" class="node">
<title>API</title>
<ellipse fill="none" stroke="black" cx="349.77" cy="-605.55" rx="59.63" ry="18"/>
<text xml:space="preserve" text-anchor="middle" x="349.77" y="-600.88" font-family="Times,serif" font-size="14.00">REST API</text>
</g>
<!-- API&#45;&gt;Validate -->
<g id="edge3" class="edge">
<title>API&#45;&gt;Validate</title>
<path fill="none" stroke="black" d="M328.11,-588.38C306.31,-572.1 272.47,-546.84 247.82,-528.43"/>
<polygon fill="black" stroke="black" points="250.19,-525.83 240.08,-522.65 246,-531.44 250.19,-525.83"/>
<text xml:space="preserve" text-anchor="middle" x="301.27" y="-544.2" font-family="Times,serif" font-size="14.00">fetch</text>
</g>
<!-- Transform -->
<g id="node5" class="node">
<title>Transform</title>
<ellipse fill="none" stroke="black" cx="216.77" cy="-385.7" rx="76.01" ry="30.05"/>
<text xml:space="preserve" text-anchor="middle" x="216.77" y="-389.65" font-family="Times,serif" font-size="14.00">Transform &amp;</text>
<text xml:space="preserve" text-anchor="middle" x="216.77" y="-372.4" font-family="Times,serif" font-size="14.00">Enrich</text>
</g>
<!-- Validate&#45;&gt;Transform -->
<g id="edge4" class="edge">
<title>Validate&#45;&gt;Transform</title>
<path fill="none" stroke="black" d="M216.77,-485.8C216.77,-470.41 216.77,-447.37 216.77,-427.38"/>
<polygon fill="black" stroke="black" points="220.27,-427.56 216.77,-417.56 213.27,-427.56 220.27,-427.56"/>
<text xml:space="preserve" text-anchor="middle" x="249.77" y="-454.95" font-family="Times,serif" font-size="14.00">validated</text>
<text xml:space="preserve" text-anchor="middle" x="249.77" y="-437.7" font-family="Times,serif" font-size="14.00">records</text>
</g>
<!-- Filter -->
<g id="node6" class="node">
<title>Filter</title>
<ellipse fill="none" stroke="black" cx="216.77" cy="-255.09" rx="71.77" ry="30.05"/>
<text xml:space="preserve" text-anchor="middle" x="216.77" y="-259.04" font-family="Times,serif" font-size="14.00">Filter &amp;</text>
<text xml:space="preserve" text-anchor="middle" x="216.77" y="-241.79" font-family="Times,serif" font-size="14.00">Deduplicate</text>
</g>
<!-- Transform&#45;&gt;Filter -->
<g id="edge5" class="edge">
<title>Transform&#45;&gt;Filter</title>
<path fill="none" stroke="black" d="M216.77,-355.19C216.77,-337.88 216.77,-315.74 216.77,-296.78"/>
<polygon fill="black" stroke="black" points="220.27,-296.97 216.77,-286.97 213.27,-296.97 220.27,-296.97"/>
<text xml:space="preserve" text-anchor="middle" x="247.9" y="-324.35" font-family="Times,serif" font-size="14.00">enriched</text>
<text xml:space="preserve" text-anchor="middle" x="247.9" y="-307.1" font-family="Times,serif" font-size="14.00">data</text>
</g>
<!-- DataWarehouse -->
<g id="node7" class="node">
<title>DataWarehouse</title>
<path fill="none" stroke="black" d="M264.15,-166.48C264.15,-169.41 242.91,-171.79 216.77,-171.79 190.63,-171.79 169.4,-169.41 169.4,-166.48 169.4,-166.48 169.4,-118.67 169.4,-118.67 169.4,-115.74 190.63,-113.35 216.77,-113.35 242.91,-113.35 264.15,-115.74 264.15,-118.67 264.15,-118.67 264.15,-166.48 264.15,-166.48"/>
<path fill="none" stroke="black" d="M264.15,-166.48C264.15,-163.55 242.91,-161.17 216.77,-161.17 190.63,-161.17 169.4,-163.55 169.4,-166.48"/>
<text xml:space="preserve" text-anchor="middle" x="216.77" y="-146.52" font-family="Times,serif" font-size="14.00">Data</text>
<text xml:space="preserve" text-anchor="middle" x="216.77" y="-129.27" font-family="Times,serif" font-size="14.00">Warehouse</text>
</g>
<!-- Filter&#45;&gt;DataWarehouse -->
<g id="edge6" class="edge">
<title>Filter&#45;&gt;DataWarehouse</title>
<path fill="none" stroke="black" d="M216.77,-224.77C216.77,-212.2 216.77,-197.33 216.77,-183.76"/>
<polygon fill="black" stroke="black" points="220.27,-183.79 216.77,-173.79 213.27,-183.79 220.27,-183.79"/>
<text xml:space="preserve" text-anchor="middle" x="231.77" y="-193.74" font-family="Times,serif" font-size="14.00">load</text>
</g>
<!-- Dashboard -->
<g id="node8" class="node">
<title>Dashboard</title>
<ellipse fill="none" stroke="black" cx="216.77" cy="-30.05" rx="65.94" ry="30.05"/>
<text xml:space="preserve" text-anchor="middle" x="216.77" y="-34" font-family="Times,serif" font-size="14.00">Analytics</text>
<text xml:space="preserve" text-anchor="middle" x="216.77" y="-16.75" font-family="Times,serif" font-size="14.00">Dashboard</text>
</g>
<!-- DataWarehouse&#45;&gt;Dashboard -->
<g id="edge7" class="edge">
<title>DataWarehouse&#45;&gt;Dashboard</title>
<path fill="none" stroke="black" d="M216.77,-113.11C216.77,-100.52 216.77,-85.48 216.77,-71.73"/>
<polygon fill="black" stroke="black" points="220.27,-72.09 216.77,-62.09 213.27,-72.09 220.27,-72.09"/>
<text xml:space="preserve" text-anchor="middle" x="237.4" y="-82.05" font-family="Times,serif" font-size="14.00">query</text>
</g>
</g>
</svg>
