<?xml version="1.0" encoding="UTF-8" standalone="no"?>
<!DOCTYPE svg PUBLIC "-//W3C//DTD SVG 1.1//EN"
 "http://www.w3.org/Graphics/SVG/1.1/DTD/svg11.dtd">
<!-- Generated by graphviz version 14.1.1 (20251213.1925)
 -->
<!-- Title: WebsiteFlow Pages: 1 -->
<svg width="486pt" height="693pt"
 viewBox="0.00 0.00 486.00 693.00" xmlns="http://www.w3.org/2000/svg" xmlns:xlink="http://www.w3.org/1999/xlink">
<g id="graph0" class="graph" transform="scale(1 1) rotate(0) translate(4 688.85)">
<title>WebsiteFlow</title>
<polygon fill="white" stroke="none" points="-4,4 -4,-688.85 481.5,-688.85 481.5,4 -4,4"/>
<!-- Home -->
<g id="node1" class="node">
<title>Home</title>
<ellipse fill="none" stroke="black" cx="96" cy="-666.85" rx="68.04" ry="18"/>
<text xml:space="preserve" text-anchor="middle" x="96" y="-662.18" font-family="Times,serif" font-size="14.00">Home Page</text>
</g>
<!-- Search -->
<g id="node2" class="node">
<title>Search</title>
<ellipse fill="none" stroke="black" cx="96" cy="-577.6" rx="45.95" ry="18"/>
<text xml:space="preserve" text-anchor="middle" x="96" y="-572.93" font-family="Times,serif" font-size="14.00">Search</text>
</g>
<!-- Home&#45;&gt;Search -->
<g id="edge2" class="edge">
<title>Home&#45;&gt;Search</title>
<path fill="none" stroke="black" d="M96,-648.62C96,-636.79 96,-620.81 96,-607.1"/>
<polygon fill="black" stroke="black" points="99.5,-607.32 96,-597.32 92.5,-607.32 99.5,-607.32"/>
<text xml:space="preserve" text-anchor="middle" x="119.62" y="-617.55" font-family="Times,serif" font-size="14.00">search</text>
</g>
<!-- ProductList -->
<g id="node3" class="node">
<title>ProductList</title>
<ellipse fill="none" stroke="black" cx="178" cy="-488.35" rx="72.78" ry="18"/>
<text xml:space="preserve" text-anchor="middle" x="178" y="-483.68" font-family="Times,serif" font-size="14.00">Product List</text>
</g>
<!-- Home&#45;&gt;ProductList -->
<g id="edge1" class="edge">
<title>Home&#45;&gt;ProductList</title>
<path fill="none" stroke="black" d="M126.51,-650.37C134.22,-645.13 141.78,-638.6 147,-630.85 169.96,-596.75 176.24,-548.5 177.78,-518.08"/>
<polygon fill="black" stroke="black" points="181.27,-518.23 178.12,-508.12 174.28,-517.99 181.27,-518.23"/>
<text xml:space="preserve" text-anchor="middle" x="198.96" y="-572.93" font-family="Times,serif" font-size="14.00">browse</text>
</g>
<!-- Login -->
<g id="node7" class="node">
<title>Login</title>
<ellipse fill="none" stroke="black" cx="156" cy="-119.3" rx="52.15" ry="30.05"/>
<text xml:space="preserve" text-anchor="middle" x="156" y="-123.25" font-family="Times,serif" font-size="14.00">Login /</text>
<text xml:space="preserve" text-anchor="middle" x="156" y="-106" font-family="Times,serif" font-size="14.00">Sign Up</text>
</g>
<!-- Home&#45;&gt;Login -->
<g id="edge3" class="edge">
<title>Home&#45;&gt;Login</title>
<path fill="none" stroke="black" d="M60.8,-651.02C33.4,-636.86 0,-612.61 0,-578.6 0,-578.6 0,-578.6 0,-219.6 0,-172.1 52.11,-146.34 96.1,-133.05"/>
<polygon fill="black" stroke="black" points="96.95,-136.45 105.61,-130.35 95.04,-129.71 96.95,-136.45"/>
<text xml:space="preserve" text-anchor="middle" x="24" y="-394.43" font-family="Times,serif" font-size="14.00">sign in</text>
</g>
<!-- Search&#45;&gt;ProductList -->
<g id="edge4" class="edge">
<title>Search&#45;&gt;ProductList</title>
<path fill="none" stroke="black" d="M98.8,-559.5C101.34,-548.46 106.03,-534.33 114.5,-524.35 119.1,-518.94 124.75,-514.21 130.78,-510.13"/>
<polygon fill="black" stroke="black" points="132.44,-513.21 139.16,-505.03 128.8,-507.23 132.44,-513.21"/>
<text xml:space="preserve" text-anchor="middle" x="139.25" y="-528.3" font-family="Times,serif" font-size="14.00">results</text>
</g>
<!-- ProductDetail -->
<g id="node4" class="node">
<title>ProductDetail</title>
<ellipse fill="none" stroke="black" cx="188" cy="-399.1" rx="83.83" ry="18"/>
<text xml:space="preserve" text-anchor="middle" x="188" y="-394.43" font-family="Times,serif" font-size="14.00">Product Detail</text>
</g>
<!-- ProductList&#45;&gt;ProductDetail -->
<g id="edge5" class="edge">
<title>ProductList&#45;&gt;ProductDetail</title>
<path fill="none" stroke="black" d="M191.27,-470.48C194.82,-465 198.17,-458.7 200,-452.35 202.25,-444.54 201.57,-435.98 199.69,-428.09"/>
<polygon fill="black" stroke="black" points="203.06,-427.12 196.74,-418.61 196.38,-429.2 203.06,-427.12"/>
<text xml:space="preserve" text-anchor="middle" x="222.41" y="-439.05" font-family="Times,serif" font-size="14.00">select</text>
</g>
<!-- Exit -->
<g id="node10" class="node">
<title>Exit</title>
<ellipse fill="none" stroke="black" cx="413" cy="-18" rx="63.83" ry="18"/>
<text xml:space="preserve" text-anchor="middle" x="413" y="-13.32" font-family="Times,serif" font-size="14.00">Leave Site</text>
</g>
<!-- ProductList&#45;&gt;Exit -->
<g id="edge16" class="edge">
<title>ProductList&#45;&gt;Exit</title>
<path fill="none" stroke="black" stroke-dasharray="1,5" d="M241.09,-479.12C318.61,-467.2 440,-441.87 440,-400.1 440,-400.1 440,-400.1 440,-118.3 440,-93.51 432.07,-66.42 424.8,-46.8"/>
<polygon fill="black" stroke="black" points="428.11,-45.65 421.21,-37.6 421.59,-48.19 428.11,-45.65"/>
<text xml:space="preserve" text-anchor="middle" x="458.75" y="-260.55" font-family="Times,serif" font-size="14.00">leave</text>
</g>
<!-- ProductDetail&#45;&gt;ProductList -->
<g id="edge7" class="edge">
<title>ProductDetail&#45;&gt;ProductList</title>
<path fill="none" stroke="black" stroke-dasharray="5,2" d="M172.68,-417.1C168.75,-422.48 165.05,-428.7 163,-435.1 160.46,-443.05 161.45,-451.73 163.85,-459.7"/>
<polygon fill="black" stroke="black" points="160.55,-460.85 167.41,-468.92 167.08,-458.33 160.55,-460.85"/>
<text xml:space="preserve" text-anchor="middle" x="179.5" y="-439.05" font-family="Times,serif" font-size="14.00">back</text>
</g>
<!-- Cart -->
<g id="node5" class="node">
<title>Cart</title>
<ellipse fill="none" stroke="black" cx="226" cy="-309.85" rx="83.83" ry="18"/>
<text xml:space="preserve" text-anchor="middle" x="226" y="-305.18" font-family="Times,serif" font-size="14.00">Shopping Cart</text>
</g>
<!-- ProductDetail&#45;&gt;Cart -->
<g id="edge6" class="edge">
<title>ProductDetail&#45;&gt;Cart</title>
<path fill="none" stroke="black" d="M195.51,-380.87C200.76,-368.8 207.9,-352.41 213.95,-338.53"/>
<polygon fill="black" stroke="black" points="217.12,-340.01 217.9,-329.44 210.7,-337.21 217.12,-340.01"/>
<text xml:space="preserve" text-anchor="middle" x="249.4" y="-349.8" font-family="Times,serif" font-size="14.00">add to cart</text>
</g>
<!-- Cart&#45;&gt;ProductList -->
<g id="edge9" class="edge">
<title>Cart&#45;&gt;ProductList</title>
<path fill="none" stroke="black" stroke-dasharray="5,2" d="M269.79,-325.51C278.62,-330.55 286.78,-337.19 292,-345.85 308.52,-373.31 295.91,-388.74 281,-417.1 269.27,-439.41 246.9,-455.96 226,-467.37"/>
<polygon fill="black" stroke="black" points="224.54,-464.19 217.25,-471.87 227.74,-470.41 224.54,-464.19"/>
<text xml:space="preserve" text-anchor="middle" x="330.91" y="-403.05" font-family="Times,serif" font-size="14.00">continue</text>
<text xml:space="preserve" text-anchor="middle" x="330.91" y="-385.8" font-family="Times,serif" font-size="14.00">shopping</text>
</g>
<!-- Checkout -->
<g id="node6" class="node">
<title>Checkout</title>
<ellipse fill="none" stroke="black" cx="226" cy="-220.6" rx="58.05" ry="18"/>
<text xml:space="preserve" text-anchor="middle" x="226" y="-215.93" font-family="Times,serif" font-size="14.00">Checkout</text>
</g>
<!-- Cart&#45;&gt;Checkout -->
<g id="edge8" class="edge">
<title>Cart&#45;&gt;Checkout</title>
<path fill="none" stroke="black" d="M226,-291.62C226,-279.79 226,-263.81 226,-250.1"/>
<polygon fill="black" stroke="black" points="229.5,-250.32 226,-240.32 222.5,-250.32 229.5,-250.32"/>
<text xml:space="preserve" text-anchor="middle" x="254.5" y="-260.55" font-family="Times,serif" font-size="14.00">proceed</text>
</g>
<!-- Checkout&#45;&gt;Login -->
<g id="edge10" class="edge">
<title>Checkout&#45;&gt;Login</title>
<path fill="none" stroke="red" d="M169.13,-216.47C147.11,-212.13 123.95,-203.06 110.25,-184.6 102.32,-173.93 106.98,-162.1 115.83,-151.54"/>
<polygon fill="red" stroke="red" points="118.21,-154.11 122.6,-144.47 113.16,-149.26 118.21,-154.11"/>
<text xml:space="preserve" text-anchor="middle" x="157.12" y="-171.3" font-family="Times,serif" font-size="14.00">not logged in</text>
</g>
<!-- OrderConfirm -->
<g id="node9" class="node">
<title>OrderConfirm</title>
<ellipse fill="none" stroke="black" cx="335" cy="-119.3" rx="77.07" ry="30.05"/>
<text xml:space="preserve" text-anchor="middle" x="335" y="-123.25" font-family="Times,serif" font-size="14.00">Order</text>
<text xml:space="preserve" text-anchor="middle" x="335" y="-106" font-family="Times,serif" font-size="14.00">Confirmation</text>
</g>
<!-- Checkout&#45;&gt;OrderConfirm -->
<g id="edge12" class="edge">
<title>Checkout&#45;&gt;OrderConfirm</title>
<path fill="none" stroke="green" d="M273.35,-210.04C288.76,-204.82 304.76,-196.82 316,-184.6 322.15,-177.92 326.32,-169.33 329.14,-160.62"/>
<polygon fill="green" stroke="green" points="332.47,-161.69 331.65,-151.13 325.71,-159.9 332.47,-161.69"/>
<text xml:space="preserve" text-anchor="middle" x="359.08" y="-171.3" font-family="Times,serif" font-size="14.00">complete</text>
</g>
<!-- Login&#45;&gt;Checkout -->
<g id="edge11" class="edge">
<title>Login&#45;&gt;Checkout</title>
<path fill="none" stroke="green" d="M184.68,-144.75C191.6,-151.58 198.56,-159.34 204,-167.35 209.02,-174.74 213.25,-183.46 216.61,-191.63"/>
<polygon fill="green" stroke="green" points="213.29,-192.75 220.12,-200.85 219.83,-190.26 213.29,-192.75"/>
<text xml:space="preserve" text-anchor="middle" x="262.58" y="-171.3" font-family="Times,serif" font-size="14.00">authenticated</text>
</g>
<!-- Account -->
<g id="node8" class="node">
<title>Account</title>
<ellipse fill="none" stroke="black" cx="116" cy="-18" rx="70.15" ry="18"/>
<text xml:space="preserve" text-anchor="middle" x="116" y="-13.32" font-family="Times,serif" font-size="14.00">My Account</text>
</g>
<!-- Login&#45;&gt;Account -->
<g id="edge13" class="edge">
<title>Login&#45;&gt;Account</title>
<path fill="none" stroke="black" d="M144.43,-89.58C138.99,-76.07 132.52,-60.02 127.13,-46.64"/>
<polygon fill="black" stroke="black" points="130.46,-45.52 123.47,-37.55 123.96,-48.14 130.46,-45.52"/>
<text xml:space="preserve" text-anchor="middle" x="163.38" y="-57.95" font-family="Times,serif" font-size="14.00">success</text>
</g>
<!-- Account&#45;&gt;ProductList -->
<g id="edge14" class="edge">
<title>Account&#45;&gt;ProductList</title>
<path fill="none" stroke="black" d="M104.43,-36.1C92.62,-55.25 76,-87.64 76,-118.3 76,-400.1 76,-400.1 76,-400.1 76,-431 103.35,-453.29 129.73,-467.61"/>
<polygon fill="black" stroke="black" points="127.88,-470.6 138.38,-472.02 131.06,-464.36 127.88,-470.6"/>
<text xml:space="preserve" text-anchor="middle" x="101.88" y="-260.55" font-family="Times,serif" font-size="14.00">browse</text>
</g>
<!-- OrderConfirm&#45;&gt;Exit -->
<g id="edge15" class="edge">
<title>OrderConfirm&#45;&gt;Exit</title>
<path fill="none" stroke="black" d="M357.14,-90.11C368.27,-75.95 381.66,-58.9 392.54,-45.05"/>
<polygon fill="black" stroke="black" points="395.25,-47.26 398.68,-37.23 389.75,-42.93 395.25,-47.26"/>
<text xml:space="preserve" text-anchor="middle" x="400.53" y="-57.95" font-family="Times,serif" font-size="14.00">done</text>
</g>
</g>
</svg>
